HIERARCHY
ROOT Hips
{
	OFFSET 0.000000 83.214638 0.000000
	CHANNELS 6 Xposition Yposition Zposition Xrotation Yrotation Zrotation
	JOINT Pelvis
	{
		OFFSET 0.000000 0.000000 0.000000
		CHANNELS 3 Xrotation Yrotation Zrotation
		JOINT LeftUpLeg
		{
			OFFSET 8.479700 -4.795502 -0.379100
			CHANNELS 3 Xrotation Yrotation Zrotation
			JOINT LeftLeg
			{
				OFFSET 0.024144 -32.555107 0.112900
				CHANNELS 3 Xrotation Yrotation Zrotation
				JOINT LeftFoot
				{
					OFFSET -0.024144 -32.638630 -3.012600
					CHANNELS 3 Xrotation Yrotation Zrotation
					JOINT LeftToeBase
					{
						OFFSET 0.970200 -13.225400 11.864200
						CHANNELS 3 Xrotation Yrotation Zrotation
						End Site
						{
							OFFSET 0.000000 12.319262 0.000000
						}
					}
					JOINT LFootTongue
					{
						OFFSET 1.142400 -1.059800 6.665200
						CHANNELS 3 Xrotation Yrotation Zrotation
						End Site
						{
							OFFSET 0.000000 12.319262 0.000000
						}
					}
				}
				JOINT LeftPantLeg
				{
					OFFSET 0.918482 -16.533964 -2.284700
					CHANNELS 3 Xrotation Yrotation Zrotation
					End Site
					{
						OFFSET 0.350399 24.744368 0.000000
					}
				}
			}
		}
		JOINT RightUpLeg
		{
			OFFSET -8.479700 -4.795502 -0.379100
			CHANNELS 3 Xrotation Yrotation Zrotation
			JOINT RightLeg
			{
				OFFSET -0.023144 -32.555092 0.112900
				CHANNELS 3 Xrotation Yrotation Zrotation
				JOINT RightFoot
				{
					OFFSET 0.023144 -32.638641 -3.012700
					CHANNELS 3 Xrotation Yrotation Zrotation
					JOINT RightToeBase
					{
						OFFSET -0.970200 -13.225400 11.864200
						CHANNELS 3 Xrotation Yrotation Zrotation
						End Site
						{
							OFFSET 0.000000 12.319244 0.000000
						}
					}
					JOINT RFootTongue
					{
						OFFSET -1.142200 -1.059800 6.665200
						CHANNELS 3 Xrotation Yrotation Zrotation
						End Site
						{
							OFFSET 0.000000 12.319243 0.000000
						}
					}
				}
				JOINT RightPantLeg
				{
					OFFSET -0.919482 -16.533978 -2.284800
					CHANNELS 3 Xrotation Yrotation Zrotation
					End Site
					{
						OFFSET -0.350400 24.744419 0.000000
					}
				}
			}
		}
	}
	JOINT Spine
	{
		OFFSET 0.000000 7.722000 1.166200
		CHANNELS 3 Xrotation Yrotation Zrotation
		JOINT Spine1
		{
			OFFSET 0.000000 12.024101 0.248800
			CHANNELS 3 Xrotation Yrotation Zrotation
			JOINT Spine2
			{
				OFFSET 0.000000 11.502998 -0.491200
				CHANNELS 3 Xrotation Yrotation Zrotation
				JOINT Neck
				{
					OFFSET 0.000000 18.430702 -3.123100
					CHANNELS 3 Xrotation Yrotation Zrotation
					JOINT Head
					{
						OFFSET 0.000000 9.051102 1.034000
						CHANNELS 3 Xrotation Yrotation Zrotation
						JOINT HairB
						{
							OFFSET 0.208400 24.786102 24.822300
							CHANNELS 3 Xrotation Yrotation Zrotation
							End Site
							{
								OFFSET 0.000000 32.263779 0.000000
							}
						}
						JOINT HairA
						{
							OFFSET -7.081100 24.428299 23.196600
							CHANNELS 3 Xrotation Yrotation Zrotation
							End Site
							{
								OFFSET 0.000000 32.263779 0.000000
							}
						}
						JOINT Hat
						{
							OFFSET 16.728800 15.048294 -15.439601
							CHANNELS 3 Xrotation Yrotation Zrotation
							End Site
							{
								OFFSET 0.000000 32.263779 0.000000
							}
						}
					}
				}
				JOINT LeftShoulder
				{
					OFFSET 6.197800 13.665199 -4.064700
					CHANNELS 3 Xrotation Yrotation Zrotation
					JOINT LeftArm
					{
						OFFSET 7.778100 -0.187103 -1.709300
						CHANNELS 3 Xrotation Yrotation Zrotation
						JOINT LeftForeArm
						{
							OFFSET 22.049376 0.000000 0.000000
							CHANNELS 3 Xrotation Yrotation Zrotation
							JOINT LeftHand
							{
								OFFSET 23.009392 0.000000 0.000000
								CHANNELS 3 Xrotation Yrotation Zrotation
								JOINT LeftHandThumb1
								{
									OFFSET 3.507191 -2.063065 3.133727
									CHANNELS 3 Xrotation Yrotation Zrotation
									JOINT LeftHandThumb2
									{
										OFFSET 3.101337 -1.790558 1.790558
										CHANNELS 3 Xrotation Yrotation Zrotation
										JOINT LeftHandThumb3
										{
											OFFSET 3.058640 -1.765907 1.765906
											CHANNELS 3 Xrotation Yrotation Zrotation
											End Site
											{
												OFFSET -0.415260 3.926476 -0.049563
											}
										}
									}
								}
								JOINT LeftHandIndex1
								{
									OFFSET 11.334419 -0.901459 3.706815
									CHANNELS 3 Xrotation Yrotation Zrotation
									JOINT LeftHandIndex2
									{
										OFFSET 3.283112 0.000000 0.000000
										CHANNELS 3 Xrotation Yrotation Zrotation
										JOINT LeftHandIndex3
										{
											OFFSET 3.323853 0.000000 0.000000
											CHANNELS 3 Xrotation Yrotation Zrotation
											End Site
											{
												OFFSET -1.135597 3.097809 0.402452
											}
										}
									}
								}
								JOINT LeftHandMiddle1
								{
									OFFSET 11.335861 0.000000 0.000000
									CHANNELS 3 Xrotation Yrotation Zrotation
									JOINT LeftHandMiddle2
									{
										OFFSET 3.410492 0.000000 0.000000
										CHANNELS 3 Xrotation Yrotation Zrotation
										JOINT LeftHandMiddle3
										{
											OFFSET 3.312172 0.000000 0.000000
											CHANNELS 3 Xrotation Yrotation Zrotation
											End Site
											{
												OFFSET -1.150200 3.080154 0.400270
											}
										}
									}
								}
								JOINT LeftHandRing1
								{
									OFFSET 11.514786 -0.013176 -3.003090
									CHANNELS 3 Xrotation Yrotation Zrotation
									JOINT LeftHandRing2
									{
										OFFSET 3.053307 0.000000 0.000000
										CHANNELS 3 Xrotation Yrotation Zrotation
										JOINT LeftHandRing3
										{
											OFFSET 3.295807 0.000000 0.000000
											CHANNELS 3 Xrotation Yrotation Zrotation
											End Site
											{
												OFFSET -1.281006 3.013344 0.375733
											}
										}
									}
								}
								JOINT LeftHandPinky1
								{
									OFFSET 10.518692 -0.960396 -5.730441
									CHANNELS 3 Xrotation Yrotation Zrotation
									JOINT LeftHandPinky2
									{
										OFFSET 2.861649 0.000000 0.000000
										CHANNELS 3 Xrotation Yrotation Zrotation
										JOINT LeftHandPinky3
										{
											OFFSET 2.863380 0.000000 0.000000
											CHANNELS 3 Xrotation Yrotation Zrotation
											End Site
											{
												OFFSET -0.843597 2.711159 0.369971
											}
										}
									}
								}
							}
							JOINT LSleeve
							{
								OFFSET 6.676277 -0.344902 -1.011730
								CHANNELS 3 Xrotation Yrotation Zrotation
								End Site
								{
									OFFSET 0.000000 14.885353 0.000000
								}
							}
						}
					}
				}
				JOINT RightShoulder
				{
					OFFSET -6.197800 13.665199 -4.064700
					CHANNELS 3 Xrotation Yrotation Zrotation
					JOINT RightArm
					{
						OFFSET -7.778100 -0.187103 -1.709300
						CHANNELS 3 Xrotation Yrotation Zrotation
						JOINT RightForeArm
						{
							OFFSET -22.049376 0.000000 0.000000
							CHANNELS 3 Xrotation Yrotation Zrotation
							JOINT RightHand
							{
								OFFSET -23.009392 0.000000 0.000000
								CHANNELS 3 Xrotation Yrotation Zrotation
								JOINT RightHandThumb1
								{
									OFFSET -3.507191 -2.063065 3.133727
									CHANNELS 3 Xrotation Yrotation Zrotation
									JOINT RightHandThumb2
									{
										OFFSET -3.101337 -1.790558 1.790558
										CHANNELS 3 Xrotation Yrotation Zrotation
										JOINT RightHandThumb3
										{
											OFFSET -3.058640 -1.765907 1.765906
											CHANNELS 3 Xrotation Yrotation Zrotation
											End Site
											{
												OFFSET 0.415260 3.926476 -0.049563
											}
										}
									}
								}
								JOINT RightHandIndex1
								{
									OFFSET -11.334419 -0.901459 3.706815
									CHANNELS 3 Xrotation Yrotation Zrotation
									JOINT RightHandIndex2
									{
										OFFSET -3.283112 0.000000 0.000000
										CHANNELS 3 Xrotation Yrotation Zrotation
										JOINT RightHandIndex3
										{
											OFFSET -3.323853 0.000000 0.000000
											CHANNELS 3 Xrotation Yrotation Zrotation
											End Site
											{
												OFFSET 1.135597 3.097809 0.402452
											}
										}
									}
								}
								JOINT RightHandMiddle1
								{
									OFFSET -11.335861 0.000000 0.000000
									CHANNELS 3 Xrotation Yrotation Zrotation
									JOINT RightHandMiddle2
									{
										OFFSET -3.410492 0.000000 0.000000
										CHANNELS 3 Xrotation Yrotation Zrotation
										JOINT RightHandMiddle3
										{
											OFFSET -3.312172 0.000000 0.000000
											CHANNELS 3 Xrotation Yrotation Zrotation
											End Site
											{
												OFFSET 1.150200 3.080154 0.400270
											}
										}
									}
								}
								JOINT RightHandRing1
								{
									OFFSET -11.514786 -0.013176 -3.003090
									CHANNELS 3 Xrotation Yrotation Zrotation
									JOINT RightHandRing2
									{
										OFFSET -3.053307 0.000000 0.000000
										CHANNELS 3 Xrotation Yrotation Zrotation
										JOINT RightHandRing3
										{
											OFFSET -3.295807 0.000000 0.000000
											CHANNELS 3 Xrotation Yrotation Zrotation
											End Site
											{
												OFFSET 1.281006 3.013344 0.375733
											}
										}
									}
								}
								JOINT RightHandPinky1
								{
									OFFSET -10.518692 -0.960396 -5.730441
									CHANNELS 3 Xrotation Yrotation Zrotation
									JOINT RightHandPinky2
									{
										OFFSET -2.861649 0.000000 0.000000
										CHANNELS 3 Xrotation Yrotation Zrotation
										JOINT RightHandPinky3
										{
											OFFSET -2.863380 0.000000 0.000000
											CHANNELS 3 Xrotation Yrotation Zrotation
											End Site
											{
												OFFSET 0.843597 2.711159 0.369971
											}
										}
									}
								}
							}
							JOINT RSleeve
							{
								OFFSET -6.676277 -0.344902 -1.011730
								CHANNELS 3 Xrotation Yrotation Zrotation
								End Site
								{
									OFFSET 0.000000 14.885353 0.000000
								}
							}
						}
					}
				}
				JOINT Backpack
				{
					OFFSET 0.000000 -2.471497 36.677502
					CHANNELS 3 Xrotation Yrotation Zrotation
					End Site
					{
						OFFSET 0.000000 20.427315 0.000000
					}
				}
				JOINT Hood
				{
					OFFSET 0.000000 18.754097 -10.431000
					CHANNELS 3 Xrotation Yrotation Zrotation
					JOINT Hood1
					{
						OFFSET 0.000000 -5.011002 -7.685901
						CHANNELS 3 Xrotation Yrotation Zrotation
						End Site
						{
							OFFSET 0.000000 9.175140 0.000000
						}
					}
				}
				JOINT LHoodieString
				{
					OFFSET 5.250500 16.397697 3.089900
					CHANNELS 3 Xrotation Yrotation Zrotation
					JOINT LHoodieString1
					{
						OFFSET 0.257700 -6.364304 3.694600
						CHANNELS 3 Xrotation Yrotation Zrotation
						JOINT LHoodieString2
						{
							OFFSET 0.000000 -9.643799 2.679100
							CHANNELS 3 Xrotation Yrotation Zrotation
							End Site
							{
								OFFSET 0.000000 10.009018 0.000000
							}
						}
					}
				}
				JOINT RHoodieString
				{
					OFFSET -5.250500 16.397697 3.089900
					CHANNELS 3 Xrotation Yrotation Zrotation
					JOINT RHoodieString1
					{
						OFFSET -0.257700 -6.364304 3.694600
						CHANNELS 3 Xrotation Yrotation Zrotation
						JOINT RHoodieString2
						{
							OFFSET 0.000000 -9.643799 2.679100
							CHANNELS 3 Xrotation Yrotation Zrotation
							End Site
							{
								OFFSET 0.000000 10.009018 0.000000
							}
						}
					}
				}
			}
			JOINT LBackpack_Strap
			{
				OFFSET 15.223200 -7.719803 -6.610900
				CHANNELS 3 Xrotation Yrotation Zrotation
				End Site
				{
					OFFSET 0.000000 16.040596 0.000000
				}
			}
			JOINT RBackpack_Strap
			{
				OFFSET -15.223000 -7.719803 -6.610900
				CHANNELS 3 Xrotation Yrotation Zrotation
				End Site
				{
					OFFSET 0.000000 16.040596 0.000000
				}
			}
		}
	}
	JOINT BoyFacialAnim_Joint
	{
		OFFSET 1.000000 -82.208099 -1.550900
		CHANNELS 3 Xrotation Yrotation Zrotation
		End Site
		{
			OFFSET 0.000000 30.012791 0.000000
		}
	}
}
MOTION
Frames: 5
Frame Time: 0.033333
-0.682235 43.364136 -0.742204 -1.442068 -23.351457 7.506005 0.000000 0.000003 0.000000 -80.463672 -10.431709 46.333913 77.226340 6.513001 -7.084028 21.771242 -1.308316 -9.706020 -0.000000 -0.000000 -0.000000 -0.000000 -0.000000 0.000000 -0.000001 0.000000 0.000000 -17.923125 -13.072287 -16.255237 105.350340 0.412220 -0.836965 21.416646 2.039194 15.406767 0.000001 -0.000001 0.000001 0.000001 -0.000001 0.000001 0.000000 0.000000 -0.000003 3.089258 -3.017946 -7.733487 2.227155 -2.216882 -4.179917 2.266843 -2.221134 -4.151916 -3.077130 3.095111 5.880254 2.307358 23.701093 0.341534 -0.000001 0.000000 0.000000 -0.000001 0.000000 0.000000 -0.000001 0.000000 0.000000 0.805364 -0.405827 3.372437 -1.012718 -8.729312 -55.453947 0.007038 -94.352561 0.006997 -59.501651 11.523917 50.776866 -1.540036 3.690179 6.142368 3.939053 7.948704 0.746804 0.000001 -0.000001 -0.000001 0.911561 3.428803 -29.767429 0.911536 3.428805 -29.767453 0.000002 0.000001 -0.000005 1.063364 3.681064 -32.215554 1.234497 3.939026 -34.790518 0.000003 0.000001 -0.000003 1.287879 4.014542 -35.559918 1.668661 4.498491 -40.687300 -0.000001 -0.000000 -0.000002 5.185535 7.816642 -46.911112 2.220567 0.979980 -47.440855 0.000001 0.000002 0.000000 -0.000001 0.000000 0.000001 3.765256 22.456011 7.188754 15.054345 24.727853 35.307389 -0.000005 111.707969 0.000002 -0.855819 -11.626249 10.644577 -1.849264 -3.581797 -6.586142 4.637210 -8.634133 -0.225408 -0.000002 0.000001 -0.000002 0.135472 -1.368683 11.306165 0.135493 -1.368666 11.306173 -0.000001 0.000000 0.000004 0.496980 -2.586080 21.753691 0.493100 -2.576256 21.666678 0.000000 0.000002 -0.000002 0.640604 -2.919963 24.742688 0.638603 -2.915681 24.704009 0.000001 -0.000005 0.000003 0.767921 -3.181382 27.135136 0.767955 -3.181399 27.135136 -0.000000 -0.000001 0.000000 -0.000001 -0.000001 -0.000002 0.000001 0.000001 -0.000000 0.000001 0.000001 -0.000000 0.000001 0.000001 -0.000000 0.000001 0.000001 -0.000000 0.000001 0.000001 0.000001 0.000000 0.000001 -0.000000 0.000001 0.000001 -0.000000 0.000001 0.000001 0.000001 0.000000 0.000001 -0.000000 0.000000 -0.000002 -0.000000 0.000000 -0.000002 -0.000000 0.000000 0.000003 0.000000 
-0.666506 43.354645 -0.741810 -1.493491 -23.355110 7.470414 -0.000000 0.000003 -0.000001 -80.450510 -10.448174 46.351914 77.259890 6.483039 -7.100765 21.759022 -1.303756 -9.675158 0.000000 -0.000000 -0.000000 0.000000 -0.000000 -0.000000 0.000002 0.000003 0.000000 -17.892666 -13.098452 -16.245137 105.362321 0.432334 -0.818543 21.464867 2.015261 15.153739 0.000001 0.000001 0.000001 0.000001 0.000001 0.000001 0.000000 -0.000000 0.000000 3.103891 -2.990720 -7.692372 2.244129 -2.198344 -4.154518 2.282549 -2.202231 -4.127333 -3.116099 3.111050 5.764461 2.248386 23.609787 0.296833 0.000000 -0.000000 -0.000000 0.000000 -0.000000 -0.000000 0.000000 -0.000000 -0.000000 0.822710 -0.405387 2.959190 -0.937970 -8.935436 -55.173339 0.006848 -94.369097 0.006747 -59.369944 11.725752 51.023982 -1.540033 3.690176 6.142368 3.939053 7.948704 0.746804 -0.000000 0.000002 0.000000 0.911562 3.428804 -29.767429 0.911536 3.428807 -29.767457 0.000001 0.000001 -0.000005 1.063363 3.681066 -32.215554 1.234497 3.939022 -34.790521 -0.000001 0.000001 -0.000001 1.287879 4.014538 -35.559918 1.668662 4.498488 -40.687300 0.000000 -0.000001 -0.000000 5.185534 7.816637 -46.911109 2.220562 0.979981 -47.440855 0.000001 -0.000001 -0.000000 -0.000003 -0.000002 -0.000000 3.808749 22.353553 7.054081 14.973815 24.793916 35.394310 -0.000047 111.671045 0.000041 -0.580038 -11.492192 11.033349 -1.849263 -3.581793 -6.586148 4.637218 -8.634133 -0.225412 0.000000 0.000001 0.000000 0.135478 -1.368674 11.306168 0.135499 -1.368676 11.306149 -0.000002 0.000003 0.000002 0.496990 -2.586087 21.753630 0.493079 -2.576225 21.666632 0.000001 0.000000 0.000001 0.640586 -2.919939 24.742613 0.638618 -2.915675 24.703925 0.000001 0.000000 -0.000001 0.767928 -3.181352 27.135066 0.767953 -3.181370 27.135049 -0.000001 -0.000004 -0.000002 0.000003 -0.000002 -0.000002 0.000001 0.000001 -0.000000 0.000001 0.000001 -0.000000 0.000001 0.000001 -0.000000 0.000001 0.000001 -0.000000 0.000001 0.000001 0.000001 0.000000 0.000001 0.000001 0.000001 0.000001 -0.000000 0.000001 0.000001 0.000001 0.000000 0.000001 0.000001 0.000000 0.000001 0.000000 0.000000 0.000001 0.000000 -0.000000 0.000003 -0.000001 
-0.653502 43.345367 -0.744335 -1.557512 -23.361209 7.426150 -0.000000 -0.000002 0.000001 -80.408942 -10.479133 46.382278 77.286411 6.451706 -7.141332 21.753290 -1.299216 -9.640141 -0.000000 -0.000000 -0.000000 -0.000000 -0.000000 -0.000000 -0.000000 -0.000001 -0.000001 -17.867572 -13.159247 -16.226369 105.377019 0.455601 -0.791396 21.537866 1.974218 14.734026 0.000001 -0.000001 -0.000002 0.000001 -0.000001 -0.000002 -0.000000 -0.000000 -0.000002 3.124216 -2.971681 -7.651284 2.258836 -2.194781 -4.126679 2.297581 -2.198518 -4.099004 -3.156154 3.118681 5.688531 2.277895 23.553158 0.182522 0.000001 0.000000 -0.000000 0.000001 0.000000 -0.000000 0.000001 0.000000 -0.000000 0.828412 -0.409955 2.650354 -0.928543 -9.006328 -54.933142 -0.000980 -94.390701 -0.001015 -59.360518 11.982236 51.235110 -1.540033 3.690179 6.142369 3.939054 7.948705 0.746803 0.000000 -0.000004 -0.000001 0.911564 3.428800 -29.767433 0.911536 3.428807 -29.767450 0.000001 -0.000000 -0.000000 1.063365 3.681066 -32.215554 1.234497 3.939029 -34.790521 0.000002 -0.000001 -0.000002 1.287880 4.014541 -35.559918 1.668659 4.498486 -40.687300 -0.000002 0.000000 -0.000002 5.185534 7.816638 -46.911112 2.220564 0.979980 -47.440858 0.000001 0.000000 0.000002 -0.000001 -0.000001 0.000002 3.839224 22.259059 6.838324 14.883628 24.909848 35.529001 0.000005 111.584165 0.000005 -0.590819 -11.324257 11.293412 -1.849264 -3.581798 -6.586148 4.637212 -8.634132 -0.225414 0.000004 0.000003 0.000001 0.135480 -1.368669 11.306181 0.135503 -1.368679 11.306177 0.000001 -0.000001 0.000005 0.496985 -2.586070 21.753521 0.493085 -2.576237 21.666535 0.000001 -0.000004 0.000001 0.640592 -2.919920 24.742482 0.638600 -2.915661 24.703800 0.000001 0.000000 0.000000 0.767944 -3.181340 27.134873 0.767933 -3.181344 27.134895 -0.000002 -0.000000 -0.000002 0.000002 -0.000000 -0.000001 0.000000 -0.000000 -0.000001 0.000000 -0.000000 -0.000001 0.000000 -0.000000 -0.000001 0.000000 -0.000000 -0.000001 0.000000 -0.000000 -0.000001 -0.000000 -0.000000 -0.000000 0.000000 -0.000000 -0.000001 0.000000 -0.000000 -0.000001 -0.000000 -0.000000 -0.000000 -0.000000 -0.000002 -0.000000 -0.000000 -0.000002 -0.000000 -0.000000 -0.000002 0.000001 
-0.647455 43.336899 -0.754872 -1.623727 -23.367360 7.384254 -0.000000 -0.000000 -0.000001 -80.365406 -10.494709 46.415947 77.283993 6.420999 -7.176536 21.767688 -1.295002 -9.599848 0.000000 -0.000000 -0.000000 0.000000 -0.000000 0.000000 -0.000000 -0.000001 0.000003 -17.852542 -13.240289 -16.203109 105.393719 0.466568 -0.759923 21.625467 1.925065 14.239369 0.000001 -0.000000 0.000000 0.000001 -0.000000 0.000000 0.000000 0.000000 -0.000002 3.145146 -2.962534 -7.621108 2.274405 -2.196862 -4.111720 2.312827 -2.201095 -4.083625 -3.164548 3.127055 5.607310 2.392107 23.502403 -0.005277 0.000000 0.000000 -0.000000 0.000000 0.000000 -0.000000 0.000000 0.000000 -0.000000 0.838701 -0.412971 2.423235 -0.930484 -9.024591 -54.721372 0.001178 -94.493386 0.001166 -59.436941 12.235780 51.501016 -1.540033 3.690178 6.142368 3.939052 7.948706 0.746806 -0.000001 -0.000001 -0.000002 0.911563 3.428806 -29.767429 0.911536 3.428805 -29.767457 0.000000 0.000000 -0.000002 1.063366 3.681069 -32.215557 1.234498 3.939025 -34.790525 0.000005 0.000001 -0.000005 1.287880 4.014541 -35.559922 1.668661 4.498486 -40.687297 -0.000001 -0.000001 -0.000002 5.185536 7.816641 -46.911112 2.220562 0.979980 -47.440855 -0.000001 0.000001 -0.000000 -0.000001 -0.000000 -0.000001 3.874609 22.168542 6.647128 14.790117 25.059252 35.653208 -0.000007 111.474513 0.000008 -0.760834 -11.175499 11.417396 -1.849265 -3.581800 -6.586149 4.637212 -8.634132 -0.225414 0.000001 -0.000000 -0.000001 0.135477 -1.368665 11.306199 0.135499 -1.368677 11.306185 0.000000 0.000001 0.000004 0.496996 -2.586087 21.753748 0.493063 -2.576238 21.666752 0.000002 -0.000000 -0.000000 0.640586 -2.919970 24.742773 0.638637 -2.915688 24.704082 -0.000001 0.000000 0.000000 0.767934 -3.181377 27.135254 0.767943 -3.181398 27.135249 0.000000 -0.000002 -0.000002 -0.000001 -0.000001 0.000001 -0.000000 -0.000002 -0.000000 -0.000000 -0.000002 -0.000000 -0.000000 -0.000002 -0.000000 -0.000000 -0.000002 -0.000000 -0.000000 -0.000002 -0.000000 -0.000001 0.000003 -0.000000 -0.000000 -0.000002 -0.000000 -0.000000 -0.000002 -0.000000 -0.000001 0.000003 -0.000000 -0.000000 0.000000 0.000000 -0.000000 0.000000 0.000000 -0.000000 -0.000000 -0.000001 
-0.648930 43.328613 -0.777198 -1.682124 -23.369731 7.350881 0.000000 -0.000001 -0.000000 -80.338276 -10.485443 46.439259 77.245205 6.405414 -7.185000 21.810563 -1.291599 -9.558714 -0.000000 0.000000 -0.000000 -0.000000 0.000000 0.000000 0.000000 -0.000003 0.000001 -17.848085 -13.317913 -16.179504 105.412987 0.452591 -0.736294 21.705382 1.882409 13.823016 0.000001 0.000000 -0.000002 0.000001 0.000000 -0.000002 -0.000000 0.000000 -0.000003 3.158878 -2.969803 -7.601318 2.289436 -2.201135 -4.112914 2.326016 -2.206182 -4.085389 -3.131189 3.140562 5.518998 2.524537 23.464722 -0.213633 -0.000000 -0.000000 -0.000000 -0.000000 -0.000000 -0.000000 -0.000000 -0.000000 -0.000000 0.854242 -0.408208 2.277624 -0.939650 -9.006280 -54.557936 -0.001135 -94.611965 -0.001157 -59.543315 12.477952 51.761967 -1.540032 3.690180 6.142371 3.939051 7.948702 0.746805 0.000000 0.000001 0.000001 0.911564 3.428802 -29.767433 0.911536 3.428804 -29.767453 -0.000003 0.000000 -0.000002 1.063367 3.681065 -32.215554 1.234498 3.939029 -34.790521 0.000003 -0.000001 -0.000003 1.287881 4.014538 -35.559922 1.668660 4.498489 -40.687297 -0.000001 -0.000001 -0.000001 5.185536 7.816639 -46.911112 2.220560 0.979979 -47.440855 0.000000 0.000000 -0.000000 -0.000002 -0.000000 0.000000 3.915636 22.081706 6.484359 14.688112 25.228412 35.744921 0.000040 111.352444 -0.000037 -0.960228 -11.098879 11.382244 -1.849256 -3.581799 -6.586144 4.637217 -8.634133 -0.225404 -0.000005 -0.000001 0.000000 0.135492 -1.368688 11.306169 0.135484 -1.368659 11.306179 0.000001 0.000001 0.000004 0.497015 -2.586138 21.754216 0.493115 -2.576302 21.667213 0.000001 -0.000001 -0.000000 0.640636 -2.920038 24.743376 0.638655 -2.915749 24.704712 0.000002 0.000002 -0.000001 0.767990 -3.181463 27.135988 0.767985 -3.181477 27.135992 -0.000001 -0.000003 -0.000000 -0.000000 -0.000001 -0.000002 0.000001 -0.000001 -0.000000 0.000001 -0.000001 -0.000000 0.000001 -0.000001 -0.000000 0.000001 -0.000001 -0.000000 0.000001 -0.000001 0.000000 -0.000000 0.000001 -0.000000 0.000001 -0.000001 -0.000000 0.000001 -0.000001 0.000000 -0.000000 0.000001 -0.000000 0.000000 -0.000000 0.000000 0.000000 -0.000000 0.000000 0.000000 -0.000001 -0.000000 
